<?xml version="1.0" standalone="no"?>
<!DOCTYPE svg PUBLIC "-//W3C//DTD SVG 20010904//EN"
 "http://www.w3.org/TR/2001/REC-SVG-20010904/DTD/svg10.dtd">
<svg version="1.0" xmlns="http://www.w3.org/2000/svg"
 width="2079.000000pt" height="852.000000pt" viewBox="0 0 2079.000000 852.000000"
 preserveAspectRatio="xMidYMid meet">

<g transform="translate(0.000000,852.000000) scale(0.100000,-0.100000)"
fill="#000000" stroke="none">
<path d="M7685 7780 c-16 -17 -52 -112 -140 -360 -384 -1089 -807 -2091 -1249
-2955 -218 -425 -463 -871 -488 -886 -11 -7 -256 -30 -324 -31 -34 0 -60 11
-150 69 -727 463 -1569 762 -2414 857 -567 64 -1204 41 -1657 -60 -348 -77
-523 -199 -523 -364 0 -118 138 -251 377 -362 299 -138 926 -276 1448 -318
708 -56 1414 -36 2594 75 139 13 261 21 270 18 19 -8 208 -140 215 -151 6 -10
-113 -199 -259 -414 -397 -582 -857 -1094 -1275 -1419 -211 -164 -406 -276
-501 -287 -45 -6 -54 -10 -54 -27 0 -32 46 -48 97 -35 68 18 213 96 338 181
368 252 708 584 1116 1094 132 164 395 541 567 813 15 23 31 42 36 42 28 0
384 -313 536 -472 363 -378 602 -721 849 -1215 98 -196 133 -276 273 -623 63
-157 128 -306 145 -333 44 -69 92 -76 123 -18 41 81 51 399 83 2680 l7 484
282 58 c156 32 340 65 410 74 129 16 310 67 536 149 54 20 113 36 132 36 31 0
35 -4 44 -37 6 -21 11 -73 11 -115 0 -77 15 -114 44 -105 18 6 36 49 36 90 0
68 54 147 100 147 53 0 84 -60 95 -185 9 -97 21 -129 60 -164 47 -41 103 -55
157 -40 44 12 110 52 142 88 27 29 36 26 36 -11 0 -100 83 -444 128 -533 32
-64 103 -138 150 -156 69 -27 151 -1 214 69 45 50 57 72 74 137 31 114 10 234
-67 388 -37 73 -42 104 -15 94 25 -9 149 14 186 34 36 20 41 21 57 7 53 -46
113 -59 162 -34 73 38 153 181 177 316 8 46 16 86 19 88 3 3 15 -4 28 -16 32
-30 57 -105 66 -199 4 -43 13 -88 19 -99 19 -36 63 -58 117 -58 148 -2 315
183 399 439 57 178 64 255 22 255 -22 0 -33 -21 -55 -105 -62 -244 -143 -396
-253 -475 -84 -61 -163 -60 -172 2 -20 147 -29 187 -53 230 -72 132 -181 132
-198 0 -10 -83 -36 -166 -67 -217 -62 -103 -101 -125 -149 -86 -21 17 -22 22
-11 38 23 34 52 105 52 129 0 24 -31 64 -51 64 -41 0 -88 -74 -89 -138 0 -70
-84 -112 -225 -112 -63 0 -95 -14 -95 -44 0 -6 22 -54 49 -106 88 -170 109
-281 75 -397 -19 -65 -83 -137 -132 -148 -65 -14 -134 42 -182 150 -51 113
-126 487 -117 583 2 30 27 96 66 180 142 303 216 774 165 1043 -19 101 -36
137 -70 145 -79 20 -147 -107 -173 -323 -16 -133 -49 -608 -57 -810 -7 -186
-9 -195 -56 -255 -103 -132 -246 -128 -262 8 -19 150 -35 207 -67 240 -64 66
-131 69 -189 9 l-33 -34 -18 38 c-33 74 -68 77 -229 21 -232 -82 -327 -109
-415 -119 -125 -15 -210 -31 -519 -95 -149 -31 -276 -56 -283 -56 -24 0 -12
2879 17 3664 7 213 6 254 -6 274 -18 27 -35 28 -59 2z m-15 -632 c-6 -227 -13
-1065 -17 -1863 -3 -797 -9 -1454 -14 -1459 -19 -21 -895 -153 -1325 -201
-374 -40 -399 -43 -406 -36 -4 3 31 74 78 156 114 199 308 565 453 855 414
827 766 1672 1202 2883 17 48 33 86 36 83 2 -2 0 -190 -7 -418z m2360 -2045
c18 -59 24 -338 11 -450 -21 -165 -74 -387 -131 -535 -35 -95 -44 -85 -36 43
12 190 45 641 52 694 16 137 60 285 85 285 4 0 13 -17 19 -37z m-7240 -687
c756 -81 1368 -259 2020 -586 204 -102 518 -285 507 -296 -6 -6 -740 -71
-1007 -88 -1017 -67 -1804 -38 -2410 89 -570 120 -891 245 -1028 400 -128 145
-45 267 246 365 163 54 495 108 802 130 180 12 698 4 870 -14z m4858 -792 c4
-135 -13 -1412 -28 -2179 -11 -527 -23 -772 -39 -788 -14 -14 -44 53 -156 333
-179 449 -306 715 -480 1006 -186 309 -361 537 -632 822 -157 165 -314 310
-472 436 -47 37 -87 72 -89 76 -6 17 93 171 113 175 11 3 112 14 225 25 472
48 1014 122 1405 194 72 13 135 22 140 21 6 -1 11 -52 13 -121z m-1888 -130
c0 -13 -62 -114 -70 -114 -12 0 -130 82 -130 91 0 4 24 10 53 13 28 3 66 8 82
9 55 7 65 7 65 1z"/>
<path d="M14555 7726 c-117 -37 -261 -142 -435 -316 -114 -113 -285 -320 -369
-442 -18 -27 -42 -50 -54 -52 -12 -2 -69 -12 -127 -21 -434 -68 -953 -262
-1364 -510 -397 -239 -724 -538 -815 -747 -25 -55 -61 -193 -61 -231 0 -42 32
-32 43 13 58 238 104 318 283 490 407 392 1049 733 1658 881 117 28 326 69
353 69 9 0 -1 -22 -25 -57 -124 -184 -285 -504 -387 -772 -207 -542 -296
-1026 -370 -2011 -52 -698 -66 -853 -111 -1165 -91 -643 -191 -1003 -397
-1438 -166 -349 -375 -631 -571 -768 -145 -103 -315 -116 -468 -38 -55 28
-149 118 -203 194 -95 133 -191 372 -232 571 -26 129 -26 761 -1 940 42 292
125 511 236 627 37 38 76 48 86 22 8 -23 26 -18 26 8 0 62 -71 65 -134 7 -126
-116 -217 -351 -262 -675 -26 -186 -27 -787 -1 -920 40 -205 134 -448 227
-586 91 -134 191 -219 306 -260 85 -30 237 -30 315 0 292 113 599 531 850
1158 177 444 311 1204 364 2068 3 55 9 112 11 128 l6 27 30 -25 c43 -36 66
-40 233 -39 165 0 256 18 408 77 l79 31 42 -22 c73 -39 218 -154 306 -242 177
-179 285 -373 419 -750 137 -390 190 -509 288 -658 144 -218 304 -312 531
-312 48 0 62 3 62 15 0 11 -11 15 -35 15 -62 0 -188 31 -253 62 -78 37 -182
133 -250 231 -95 138 -160 287 -318 727 -74 207 -149 368 -223 480 -105 160
-269 324 -434 432 l-78 52 28 14 c131 67 374 232 553 376 441 354 839 805
1020 1156 101 198 137 362 127 587 -9 209 -58 338 -178 467 -145 155 -354 264
-607 316 -189 38 -533 48 -821 23 l-75 -6 24 34 c143 205 407 487 560 602 147
110 276 158 294 110 6 -15 8 -15 16 -3 14 21 12 28 -10 50 -23 23 -57 24 -115
6z m0 -848 c276 -32 513 -136 675 -298 90 -89 130 -156 167 -276 26 -86 26
-377 -1 -484 -50 -200 -194 -447 -423 -729 -126 -155 -477 -499 -654 -641
-172 -139 -366 -276 -490 -347 -141 -81 -136 -79 -172 -64 -181 76 -348 103
-524 83 -65 -7 -123 -20 -147 -32 -22 -11 -42 -17 -44 -15 -9 8 39 503 74 760
60 453 157 847 292 1191 111 279 258 569 382 753 56 84 62 90 102 96 140 24
571 26 763 3z m-1102 -2823 c38 -8 91 -25 119 -37 l51 -24 -94 -31 c-139 -47
-200 -57 -349 -58 -118 0 -139 3 -170 20 -41 25 -53 74 -25 105 43 47 300 61
468 25z"/>
<path d="M15863 5395 c-84 -36 -137 -227 -183 -655 -22 -204 -22 -205 -53
-238 -80 -85 -274 -187 -377 -199 -46 -5 -52 -3 -89 30 -82 74 -165 95 -234
61 -52 -26 -139 -124 -179 -200 -46 -88 -101 -250 -130 -381 -29 -135 -28
-293 1 -385 58 -181 189 -256 343 -198 194 73 345 341 364 647 8 132 -6 214
-50 304 l-33 66 57 11 c77 16 224 89 295 147 l58 48 -6 -124 c-4 -68 -12 -205
-18 -304 -6 -103 -9 -272 -6 -395 11 -372 57 -540 178 -644 108 -92 225 -62
299 75 31 59 35 73 38 167 5 123 -4 174 -64 364 -40 126 -79 286 -72 294 2 1
32 -5 68 -13 36 -9 101 -16 146 -17 74 -1 86 2 156 37 86 42 161 105 198 166
14 22 28 41 31 41 4 0 9 -13 12 -29 7 -35 52 -90 85 -102 60 -23 131 36 231
189 30 45 58 81 64 79 5 -1 22 -39 38 -82 67 -185 163 -182 274 8 l27 48 62
-60 c68 -64 118 -86 177 -75 53 11 104 40 137 80 26 32 32 35 52 24 13 -7 57
-11 108 -9 76 1 95 -2 147 -26 141 -64 264 -66 392 -5 36 17 67 29 67 28 25
-49 35 -62 58 -74 33 -17 49 -18 83 -2 42 19 67 71 76 161 7 74 11 84 42 115
19 19 39 32 45 28 5 -3 20 -46 32 -96 12 -49 28 -95 36 -101 29 -24 60 5 110
106 52 103 76 135 100 135 9 0 53 -25 98 -55 150 -100 287 -145 435 -145 137
0 293 43 337 91 16 18 16 19 -13 19 -16 0 -55 -9 -86 -19 -216 -75 -441 -40
-647 99 -30 20 -70 45 -87 54 -64 33 -105 0 -174 -136 -21 -43 -41 -78 -43
-78 -2 0 -12 32 -21 70 -30 123 -70 147 -142 85 -51 -44 -73 -89 -73 -154 0
-121 -73 -181 -110 -91 -12 29 -11 32 34 77 55 57 80 105 80 154 1 70 -53 92
-103 41 -32 -32 -71 -128 -71 -176 0 -40 -17 -57 -95 -92 -85 -39 -182 -44
-275 -14 -39 12 -73 26 -75 31 -3 4 4 24 16 44 68 115 -101 345 -255 345 -42
0 -95 -27 -107 -54 -9 -20 -8 -43 5 -108 22 -113 21 -185 -4 -222 -28 -43 -87
-76 -137 -76 -38 0 -50 7 -115 65 -97 87 -115 86 -170 -5 -38 -63 -89 -120
-108 -120 -18 0 -46 40 -64 92 -32 91 -54 127 -82 134 -33 8 -52 -10 -125
-118 -122 -180 -177 -202 -214 -86 -22 66 -31 78 -61 78 -17 0 -33 -15 -62
-58 -52 -76 -121 -138 -190 -170 -77 -37 -203 -38 -309 -3 -85 28 -103 24
-103 -21 1 -50 34 -193 80 -339 73 -232 85 -329 53 -443 -12 -43 -28 -71 -58
-103 -38 -39 -46 -43 -90 -43 -45 0 -51 3 -105 58 -63 63 -87 115 -115 248
-34 164 -36 620 -4 1053 l12 164 43 57 c150 198 244 445 247 650 2 117 -7 152
-42 173 -35 20 -55 21 -98 2z m81 -178 c0 -145 -28 -257 -100 -400 -43 -86
-110 -197 -118 -197 -14 0 44 434 74 550 38 147 90 222 130 184 12 -12 15 -41
14 -137z m1938 -713 c87 -56 147 -205 101 -247 -19 -17 -22 -16 -77 9 l-57 26
-49 -24 -50 -25 6 22 c3 12 -2 63 -10 114 -9 50 -16 102 -16 116 0 50 82 55
152 9z m683 -164 c-15 -23 -29 -39 -32 -36 -7 7 13 64 35 96 16 25 17 25 20 3
2 -12 -9 -40 -23 -63z m-3473 -20 l43 -32 -71 6 c-39 3 -86 11 -104 17 l-33
12 24 20 c33 26 87 18 141 -23z m-185 -39 c31 -25 110 -42 203 -43 l72 -2 25
-39 c53 -84 67 -142 66 -277 0 -93 -6 -145 -21 -202 -73 -272 -211 -441 -370
-455 -132 -12 -216 91 -237 293 -14 126 44 395 121 569 23 54 101 175 111 175
3 0 16 -9 30 -19z m2956 -58 c-7 -2 -19 -2 -25 0 -7 3 -2 5 12 5 14 0 19 -2
13 -5z"/>
<path d="M17211 4947 c-14 -17 3 -41 23 -34 9 4 16 13 16 21 0 19 -26 28 -39
13z"/>
</g>
</svg>
